<?xml version="1.0" standalone="no"?>
<!DOCTYPE svg PUBLIC "-//W3C//DTD SVG 20010904//EN"
 "http://www.w3.org/TR/2001/REC-SVG-20010904/DTD/svg10.dtd">
<svg version="1.0" xmlns="http://www.w3.org/2000/svg"
 width="260.000000pt" height="260.000000pt" viewBox="0 0 260.000000 260.000000"
 preserveAspectRatio="xMidYMid meet">
<metadata>
Created by potrace 1.14, written by Peter Selinger 2001-2017
</metadata>
<g transform="translate(0.000000,260.000000) scale(0.100000,-0.100000)"
fill="#000000" stroke="none">
<path d="M0 1300 l0 -1300 1300 0 1300 0 0 1300 0 1300 -1300 0 -1300 0 0
-1300z m1061 510 c16 -85 81 -321 105 -378 30 -71 46 -76 75 -24 9 19 24 41
32 50 8 9 22 33 31 52 9 19 25 49 36 65 29 44 98 188 106 221 13 55 9 54 265
54 l239 0 0 -71 c0 -92 -36 -187 -123 -322 -20 -31 -37 -61 -37 -65 0 -8 -47
-81 -78 -122 -10 -14 -36 -54 -57 -90 -32 -54 -74 -114 -123 -175 -4 -5 -25
-37 -45 -70 -21 -33 -52 -78 -68 -100 -17 -22 -42 -58 -57 -80 -15 -23 -38
-52 -52 -66 -14 -14 -41 -51 -60 -82 l-34 -57 -243 0 -243 0 0 60 c0 53 5 69
35 116 20 30 45 65 55 77 34 37 100 131 100 142 0 6 -28 40 -63 76 -56 57
-117 156 -117 188 0 6 -4 11 -9 11 -8 0 -56 93 -80 155 -51 136 -105 415 -87
461 5 12 44 14 248 12 l243 -3 6 -35z"/>
</g>
</svg>
